<?xml version="1.0" encoding="UTF-8" standalone="no"?>
<!DOCTYPE svg PUBLIC "-//W3C//DTD SVG 1.1//EN" "http://www.w3.org/Graphics/SVG/1.1/DTD/svg11.dtd">
<svg width="100%" height="100%" viewBox="0 0 64 64" version="1.1" xmlns="http://www.w3.org/2000/svg" xmlns:xlink="http://www.w3.org/1999/xlink" xml:space="preserve" xmlns:serif="http://www.serif.com/" style="fill-rule:evenodd;clip-rule:evenodd;stroke-linejoin:round;stroke-miterlimit:2;">
    <rect x="-0.021" y="-0.021" width="64.042" height="64.042" style="fill:#969696;"/>
    <rect x="4.887" y="3.974" width="16.01" height="16.01"/>
    <rect x="4.887" y="23.974" width="16.01" height="16.01" style="fill:#fff;"/>
    <rect x="4.887" y="43.974" width="16.01" height="16.01"/>
    <rect x="24.887" y="3.974" width="16.01" height="16.01" style="fill:#fff;"/>
    <rect x="24.887" y="23.974" width="16.01" height="16.01" style="fill:#555;"/>
    <rect x="24.887" y="43.974" width="16.01" height="16.01" style="fill:#fff;"/>
    <rect x="44.887" y="3.974" width="16.01" height="16.01"/>
    <rect x="44.887" y="23.974" width="16.01" height="16.01" style="fill:#fff;"/>
    <rect x="44.887" y="43.974" width="16.01" height="16.01"/>
    <path d="M59.814,5.774l-0,52.536c-0,0.552 -0.448,1 -1,1l-51.696,-0c-0.552,-0 -1,-0.448 -1,-1l0,-52.536c0,-0.552 0.448,-1 1,-1l51.696,0c0.552,0 1,0.448 1,1Zm-5,4c-0,0 -43.696,0 -43.696,0l0,44.536c0,-0 43.696,-0 43.696,-0l-0,-44.536Z" style="fill:#ff04c8;"/>
</svg>
